# xmcd
#
# Track frame offsets: 
#        150
#        19442
#        40377
#        52317
#        71352
#        89552
#        105615
#        122392
#        140155
#        156055
#        175105
#        189590
#        204765
#        216235
#        234282
#
# Disc length: 3257 seconds
#
# Revision: 6
# Processed by: cddbd v1.5.2PL0 Copyright (c) Steve Scherf et al.
# Submitted via: ExactAudioCopy v1.0b3
#
DISCID=d50cb70f
DTITLE=Corey Harris and Henry Butler - Vu-Du Menz
DYEAR=2000
DGENRE=Blues
TTITLE0=Let 'em Roll
TTITLE1=If I Was Your Man
TTITLE2=Sugar Daddy
TTITLE3=There's No Substitute For Love
TTITLE4=King Cotton
TTITLE5=Mulberry Row
TTITLE6=Down Home Livin'
TTITLE7=Voodoo Man
TTITLE8=Song of the Pipelayer
TTITLE9=If You Let A Man Kick You Once
TTITLE10=L'esprit De James
TTITLE11=Shake What Your Mama Gave You
TTITLE12=Didn't My Lord Deliver Daniel?
TTITLE13=What Man Have Done
TTITLE14=Why Don't You Live So God Can Use You?
EXTD=
EXTT0=
EXTT1=
EXTT2=
EXTT3=
EXTT4=
EXTT5=
EXTT6=
EXTT7=
EXTT8=
EXTT9=
EXTT10=
EXTT11=
EXTT12=
EXTT13=
EXTT14=
PLAYORDER=
